<svg width="32" height="32" viewBox="0 0 32 32" fill="none" xmlns="http://www.w3.org/2000/svg">
<path d="M3 11H29V30H19.006L16.005 28.803L13.004 30H3V11Z" fill="#DAC8B1"/>
<path d="M2 11C2 10.45 2.45 10 3 10H29C29.55 10 30 10.45 30 11C30 11.55 29.55 12 29 12H3C2.45 12 2 11.55 2 11Z" fill="#298E9C"/>
<path d="M24 30H19.02L16.005 29.001L12.99 30H8V4.2C8 2.99 8.98 2 10.2 2H21.8C23.01 2 24 2.98 24 4.2V30Z" fill="#F1DCC1"/>
<path d="M18.97 7.04C18.97 6.38 19.23 5.74 19.7 5.27C19.79 5.18 19.72 5.01 19.59 5L17.34 5.01C17.3092 5.0083 17.2786 5.01616 17.2524 5.0325C17.2262 5.04885 17.2056 5.07288 17.1936 5.10133C17.1816 5.12977 17.1786 5.16123 17.1851 5.19142C17.1916 5.22161 17.2073 5.24905 17.23 5.27C17.688 5.728 17.956 6.348 17.97 6.99C17.4777 6.50359 16.8523 6.17379 16.1729 6.04214C15.4934 5.9105 14.7902 5.9829 14.1518 6.25024C13.5134 6.51757 12.9684 6.96787 12.5855 7.5444C12.2026 8.12093 11.9989 8.79789 12 9.49C12 10.47 12.4 11.36 13.07 11.99H11.51C11.23 11.99 11.01 12.22 11.01 12.49C11.01 12.77 11.24 12.99 11.51 12.99L15.51 12.98C15.68 12.98 15.85 12.97 16.01 12.94C16.7557 12.8345 17.4471 12.4899 17.9803 11.958C18.5135 11.426 18.8597 10.7355 18.967 9.99H18.98V9.913C19.002 9.77 19.01 9.62 19.01 9.47C19.0086 9.31812 18.9975 9.16649 18.977 9.016L18.97 7.04ZM17.977 9.074L17.98 9.871C17.8873 10.4601 17.5878 10.997 17.1352 11.3853C16.6825 11.7736 16.1064 11.988 15.51 11.99C14.846 11.99 14.2091 11.7269 13.7387 11.2584C13.2683 10.7898 13.0027 10.154 13 9.49C13 8.82604 13.2631 8.18912 13.7316 7.71869C14.2002 7.24826 14.8361 6.98265 15.5 6.98C16.742 6.98 17.781 7.887 17.977 9.074Z" fill="#8C5543"/>
<path d="M11.5 18H14.51C14.78 18 15 17.78 15.01 17.5V15.49C15.01 15.21 14.78 14.99 14.51 14.99H11.5C11.22 14.99 11 15.22 11 15.49V17.5C11 17.78 11.23 18 11.5 18ZM6.39 21H4.61C4.27 21 4 20.73 4 20.39V15.61C4 15.27 4.27 15 4.61 15H6.39C6.73 15 7 15.27 7 15.61V20.39C6.99 20.73 6.72 21 6.39 21ZM25.61 21H27.39C27.72 21 27.99 20.73 28 20.39V15.61C28 15.27 27.73 15 27.39 15H25.61C25.27 15 25 15.27 25 15.61V20.39C25 20.73 25.27 21 25.61 21ZM14.5 22H11.49C11.22 22 10.99 21.78 10.99 21.5V19.49C10.99 19.22 11.21 18.99 11.49 18.99H14.5C14.77 18.99 15 19.21 15 19.49V21.5C14.99 21.78 14.77 22 14.5 22ZM20.5 22H17.49C17.22 22 16.99 21.78 16.99 21.5V19.49C16.99 19.22 17.21 18.99 17.49 18.99H20.5C20.77 18.99 21 19.21 21 19.49V21.5C20.99 21.78 20.77 22 20.5 22ZM17.5 18H20.51C20.78 18 21 17.78 21.01 17.5V15.49C21.01 15.21 20.78 14.99 20.51 14.99H17.5C17.22 14.99 17 15.22 17 15.49V17.5C17 17.78 17.23 18 17.5 18Z" fill="#71C9D6"/>
<path d="M8 2C7.45 2 7 2.45 7 3C7 3.55 7.45 4 8 4H24C24.55 4 25 3.55 25 3C25 2.45 24.55 2 24 2H8ZM10 30V26C10 25.45 9.78 24.95 9.42 24.58C9.05 24.22 8.55 24 8 24C7.46957 24 6.96086 24.2107 6.58579 24.5858C6.21071 24.9609 6 25.4696 6 26V30H7V29.55C7 29.25 7.25 29 7.55 29H8.45C8.75 29 9 29.25 9 29.55V30H10Z" fill="#298E9C"/>
<path d="M13 30H19.01V25.38C19.01 24.62 18.39 24 17.63 24H14.37C13.61 24 13 24.61 13 25.37V30ZM7.5 26H8.5C8.78 26 9 25.78 9 25.5C9 25.22 8.78 25 8.5 25H7.5C7.22 25 7 25.22 7 25.5C7 25.78 7.22 26 7.5 26Z" fill="#ABABAE"/>
</svg>
