<svg width="32" height="32" viewBox="0 0 32 32" fill="none" xmlns="http://www.w3.org/2000/svg">
<path d="M16 30C23.7322 30 30 23.7322 30 16C30 8.2678 23.7322 2 16 2C8.2678 2 2 8.2678 2 16C2 18.24 2.5264 20.3568 3.4602 22.2342C3.7094 22.7326 3.792 23.3024 3.6478 23.8414L2.8148 26.9578C2.7323 27.2662 2.73237 27.5909 2.81502 27.8993C2.89766 28.2076 3.05997 28.4888 3.28564 28.7146C3.51132 28.9405 3.79242 29.1029 4.10074 29.1858C4.40906 29.2686 4.73374 29.2689 5.0422 29.1866L8.1586 28.3522C8.69957 28.216 9.27164 28.2823 9.7672 28.5384C11.7033 29.5025 13.8372 30.0029 16 30Z" stroke="black" stroke-width="2"/>
<path d="M16 12.5L15.2496 13.2336C15.3474 13.3335 15.4641 13.4129 15.593 13.4671C15.7219 13.5213 15.8602 13.5492 16 13.5492C16.1398 13.5492 16.2782 13.5213 16.4071 13.4671C16.5359 13.4129 16.6526 13.3335 16.7504 13.2336L16 12.5ZM13.921 19.3194C13.1062 18.6278 12.2886 17.8242 11.6824 16.9954C11.065 16.1484 10.75 15.3868 10.75 14.7526H8.65002C8.65002 16.035 9.25902 17.2362 9.98702 18.233C10.7276 19.248 11.681 20.1706 12.5602 20.9196L13.921 19.3194ZM10.75 14.7526C10.75 13.2028 11.443 12.388 12.1542 12.1206C12.8794 11.8504 14.033 11.9946 15.2496 13.2364L16.7504 11.7678C15.132 10.1158 13.137 9.51104 11.4192 10.1536C9.69022 10.8004 8.65002 12.556 8.65002 14.7526H10.75ZM19.4398 20.921C20.319 20.1734 21.2724 19.2494 22.013 18.2358C22.741 17.2376 23.35 16.0364 23.35 14.754H21.25C21.25 15.3882 20.935 16.1498 20.3176 16.9968C19.7114 17.827 18.8938 18.6292 18.0804 19.3208L19.4398 20.921ZM23.35 14.754C23.35 12.556 22.3098 10.8004 20.5808 10.1536C18.863 9.51104 16.868 10.1144 15.2496 11.7678L16.7504 13.2378C17.967 11.9946 19.122 11.8504 19.8444 12.1206C20.5584 12.3866 21.25 13.2042 21.25 14.754H23.35ZM12.5602 20.921C13.6522 21.8492 14.5202 22.643 16 22.643V20.543C15.4204 20.543 15.1362 20.354 13.921 19.3194L12.5602 20.921ZM18.0804 19.3208C16.8638 20.3554 16.5796 20.543 16 20.543V22.643C17.4798 22.643 18.3492 21.8492 19.4398 20.921L18.0804 19.3208Z" fill="black"/>
</svg>
