<svg width="32" height="32" viewBox="0 0 32 32" fill="none" xmlns="http://www.w3.org/2000/svg">
<path d="M18.5 21.9004C18.9243 21.9004 19.3318 22.0681 19.6318 22.3682C19.9319 22.6682 20.0996 23.0757 20.0996 23.5C20.0996 23.9243 19.9319 24.3318 19.6318 24.6318C19.3318 24.9319 18.9243 25.0996 18.5 25.0996H5.5C5.07565 25.0996 4.66822 24.9319 4.36816 24.6318C4.06811 24.3318 3.90039 23.9243 3.90039 23.5C3.90039 23.0757 4.06811 22.6682 4.36816 22.3682C4.66822 22.0681 5.07565 21.9004 5.5 21.9004H18.5ZM26.5 13.9004C26.9243 13.9004 27.3318 14.0681 27.6318 14.3682C27.9319 14.6682 28.0996 15.0757 28.0996 15.5C28.0996 15.9243 27.9319 16.3318 27.6318 16.6318C27.3318 16.9319 26.9243 17.0996 26.5 17.0996H5.5C5.07565 17.0996 4.66822 16.9319 4.36816 16.6318C4.06811 16.3318 3.90039 15.9243 3.90039 15.5C3.90039 15.0757 4.06811 14.6682 4.36816 14.3682C4.66822 14.0681 5.07565 13.9004 5.5 13.9004H26.5ZM20.5 5.90039C20.9243 5.90039 21.3318 6.06811 21.6318 6.36816C21.9319 6.66822 22.0996 7.07565 22.0996 7.5C22.0996 7.92435 21.9319 8.33178 21.6318 8.63184C21.3318 8.93189 20.9243 9.09961 20.5 9.09961H5.5C5.07565 9.09961 4.66822 8.93189 4.36816 8.63184C4.06811 8.33178 3.90039 7.92435 3.90039 7.5C3.90039 7.07565 4.06811 6.66822 4.36816 6.36816C4.66822 6.06811 5.07565 5.90039 5.5 5.90039H20.5Z" fill="#0B0B0B" stroke="#0B0B0B" stroke-width="0.2"/>
</svg>
