<svg width="32" height="32" viewBox="0 0 32 32" fill="none" xmlns="http://www.w3.org/2000/svg">
<path d="M5.6 23.7161H8.19999V29L14.8313 23.7161H21.2C22.6339 23.7161 23.8 22.5547 23.8 21.1266V10.7685C23.8 9.34035 22.6339 8.17896 21.2 8.17896H5.6C4.1661 8.17896 3 9.34035 3 10.7685V21.1266C3 22.5547 4.1661 23.7161 5.6 23.7161Z" fill="#0B0B0B"/>
<path d="M26.4 3H10.8001C9.36617 3 8.20007 4.1614 8.20007 5.58952H23.8C25.2339 5.58952 26.4 6.75092 26.4 8.17904V18.5371C27.8339 18.5371 29 17.3757 29 15.9476V5.58952C29 4.1614 27.8339 3 26.4 3Z" fill="#0B0B0B"/>
</svg>
