<svg width="32" height="32" viewBox="0 0 32 32" fill="none" xmlns="http://www.w3.org/2000/svg">
<path d="M23.92 22.3279C26.0207 20.2262 27.2007 17.3762 27.2007 14.4047C27.2007 11.4332 26.0207 8.58323 23.92 6.48149C22.88 5.44135 21.6453 4.61627 20.2863 4.05334C18.9274 3.49042 17.4709 3.20068 16 3.20068C14.5291 3.20068 13.0726 3.49042 11.7137 4.05334C10.3548 4.61627 9.12004 5.44135 8.08001 6.48149C5.97936 8.58323 4.79932 11.4332 4.79932 14.4047C4.79932 17.3762 5.97936 20.2262 8.08001 22.3279L10.5136 24.7263L13.7824 27.9023L13.9952 28.0911C15.2352 29.0959 17.0512 29.0319 18.2192 27.9023L22.1152 24.1103L23.92 22.3279ZM16 19.1999C14.727 19.1999 13.5061 18.6942 12.6059 17.794C11.7057 16.8938 11.2 15.6729 11.2 14.3999C11.2 13.1269 11.7057 11.906 12.6059 11.0058C13.5061 10.1056 14.727 9.59989 16 9.59989C17.2731 9.59989 18.494 10.1056 19.3941 11.0058C20.2943 11.906 20.8 13.1269 20.8 14.3999C20.8 15.6729 20.2943 16.8938 19.3941 17.794C18.494 18.6942 17.2731 19.1999 16 19.1999Z" fill="#0B0B0B"/>
</svg>
