<svg width="32" height="32" viewBox="0 0 32 32" fill="none" xmlns="http://www.w3.org/2000/svg">
<path d="M14.88 24.54C15.6267 26.2433 16 28.0633 16 30C16 28.0633 16.3617 26.2433 17.085 24.54C17.8317 22.8367 18.835 21.355 20.095 20.095C21.355 18.835 22.8367 17.8433 24.54 17.12C26.2433 16.3733 28.0633 16 30 16C28.0633 16 26.2433 15.6383 24.54 14.915C22.8822 14.2002 21.3741 13.179 20.095 11.905C18.821 10.6259 17.7998 9.11782 17.085 7.46C16.3617 5.75667 16 3.93667 16 2C16 3.93667 15.6267 5.75667 14.88 7.46C14.1567 9.16333 13.165 10.645 11.905 11.905C10.6259 13.179 9.11782 14.2002 7.46 14.915C5.75667 15.6383 3.93667 16 2 16C3.93667 16 5.75667 16.3733 7.46 17.12C9.16333 17.8433 10.645 18.835 11.905 20.095C13.165 21.355 14.1567 22.8367 14.88 24.54Z" fill="#0B0B0B"/>
</svg>
