<svg width="32" height="32" viewBox="0 0 32 32" fill="none" xmlns="http://www.w3.org/2000/svg">
<path d="M13.895 2.77724C14.4826 2.2777 15.2287 2.00342 16 2.00342C16.7713 2.00342 17.5174 2.2777 18.105 2.77724L27.855 11.0642C28.2139 11.3693 28.5021 11.7488 28.6999 12.1763C28.8976 12.6038 29 13.0692 29 13.5402V26.5002C29 27.1633 28.7366 27.7992 28.2678 28.268C27.7989 28.7368 27.163 29.0002 26.5 29.0002H22.5C21.837 29.0002 21.2011 28.7368 20.7322 28.268C20.2634 27.7992 20 27.1633 20 26.5002V20.0002C20 19.4714 19.7905 18.964 19.4174 18.5892C19.0443 18.2144 18.5379 18.0026 18.009 18.0002H13.99C13.4613 18.0029 12.9552 18.2148 12.5822 18.5895C12.2093 18.9643 12 19.4715 12 20.0002V26.5002C12 26.8285 11.9353 27.1536 11.8097 27.4569C11.6841 27.7603 11.4999 28.0359 11.2678 28.268C11.0356 28.5002 10.76 28.6843 10.4567 28.8099C10.1534 28.9356 9.8283 29.0002 9.5 29.0002H5.5C4.83696 29.0002 4.20107 28.7368 3.73223 28.268C3.26339 27.7992 3 27.1633 3 26.5002V13.5402C3.00003 13.0692 3.10244 12.6038 3.30014 12.1763C3.49785 11.7488 3.78612 11.3693 4.145 11.0642L13.895 2.77724Z" fill="#0B0B0B"/>
</svg>
