<svg width="32" height="32" viewBox="0 0 32 32" fill="none" xmlns="http://www.w3.org/2000/svg">
<path d="M20.8002 6.90039C24.5531 6.90046 27.7668 9.70955 27.767 13.373C27.767 15.8902 26.5883 18.0037 25.0365 19.7461C23.4918 21.4826 21.5014 22.9383 19.7084 24.1523L16.6166 26.2451H16.6156C16.4338 26.368 16.2198 26.4345 16.0004 26.4346C15.7808 26.4346 15.5661 26.3681 15.3842 26.2451L12.2924 24.1523C10.5007 22.9383 8.50837 21.4826 6.96228 19.7461C5.41184 18.0037 4.23376 15.8902 4.23376 13.373C4.23393 9.70966 7.44683 6.90062 11.1996 6.90039C13.1062 6.90039 14.7849 7.77813 16.0004 8.91992C17.2157 7.7783 18.8924 6.90039 20.8002 6.90039Z" fill="#0B0B0B" stroke="#0B0B0B" stroke-width="0.2"/>
</svg>
