<svg width="32" height="32" viewBox="0 0 32 32" fill="none" xmlns="http://www.w3.org/2000/svg">
<path d="M29.3334 9.88905C29.3334 10.3605 29.1578 10.8127 28.8453 11.1461C28.5327 11.4795 28.1088 11.6668 27.6667 11.6668H22.6667C22.2247 11.6668 21.8008 11.4795 21.4882 11.1461C21.1757 10.8127 21.0001 10.3605 21.0001 9.88905V8.11127C21.0001 7.63978 21.1757 7.18759 21.4882 6.8542C21.8008 6.5208 22.2247 6.3335 22.6667 6.3335H27.6667C28.1088 6.3335 28.5327 6.5208 28.8453 6.8542C29.1578 7.18759 29.3334 7.63978 29.3334 8.11127V9.88905ZM11.0001 9.88905C11.0001 10.3605 10.8245 10.8127 10.5119 11.1461C10.1994 11.4795 9.77544 11.6668 9.33341 11.6668H4.33341C3.89139 11.6668 3.46746 11.4795 3.1549 11.1461C2.84234 10.8127 2.66675 10.3605 2.66675 9.88905V8.11127C2.66675 7.63978 2.84234 7.18759 3.1549 6.8542C3.46746 6.5208 3.89139 6.3335 4.33341 6.3335H9.33341C9.77544 6.3335 10.1994 6.5208 10.5119 6.8542C10.8245 7.18759 11.0001 7.63978 11.0001 8.11127V9.88905Z" fill="#DAC8B1"/>
<path d="M31 28.5558C31 29.0273 30.8244 29.4795 30.5118 29.8129C30.1993 30.1462 29.7754 30.3335 29.3333 30.3335H2.66667C2.22464 30.3335 1.80072 30.1462 1.48816 29.8129C1.17559 29.4795 1 29.0273 1 28.5558V9.88911C1 9.41761 1.17559 8.96543 1.48816 8.63203C1.80072 8.29863 2.22464 8.11133 2.66667 8.11133H29.3333C29.7754 8.11133 30.1993 8.29863 30.5118 8.63203C30.8244 8.96543 31 9.41761 31 9.88911V28.5558Z" fill="#F1DCC1"/>
<path d="M19.3334 6.33333V4.55556C19.3334 3.89956 18.9968 3.33244 18.5001 3.024V2.77778C18.5001 2.30628 18.3245 1.8541 18.0119 1.5207C17.6994 1.1873 17.2755 1 16.8334 1H15.1668C14.7247 1 14.3008 1.1873 13.9883 1.5207C13.6757 1.8541 13.5001 2.30628 13.5001 2.77778V3.024C13.0043 3.33244 12.6668 3.89956 12.6668 4.55556V6.33333H11.8334V30.3333H20.1668V6.33333H19.3334Z" fill="#DAC8B1"/>
<path d="M12.6666 4.55566H14.3332V6.33344H12.6666V4.55566ZM17.6666 4.55566H19.3332V6.33344H17.6666V4.55566ZM15.1666 4.55566H16.8332V6.33344H15.1666V4.55566Z" fill="#71C9D6"/>
<path d="M13.4999 11.667H15.1666V24.1114H13.4999V11.667ZM16.8333 11.667H18.4999V24.1114H16.8333V11.667Z" fill="#298E9C"/>
<path d="M21.0001 13.4448H22.6667V24.1115H21.0001V13.4448ZM24.3334 13.4448H26.0001V24.1115H24.3334V13.4448ZM27.6667 13.4448H29.3334V24.1115H27.6667V13.4448ZM2.66675 13.4448H4.33341V24.1115H2.66675V13.4448ZM6.00008 13.4448H7.66675V24.1115H6.00008V13.4448ZM9.33341 13.4448H11.0001V24.1115H9.33341V13.4448ZM2.66675 25.0004H4.33341V26.7782H2.66675V25.0004ZM6.00008 25.0004H7.66675V26.7782H6.00008V25.0004ZM9.33341 25.0004H11.0001V26.7782H9.33341V25.0004Z" fill="#71C9D6"/>
<path d="M13.4999 25H15.1666V26.7778H13.4999V25ZM16.8333 25H18.4999V26.7778H16.8333V25Z" fill="#298E9C"/>
<path d="M20.9999 25H22.6666V26.7778H20.9999V25ZM24.3333 25H25.9999V26.7778H24.3333V25ZM27.6666 25H29.3333V26.7778H27.6666V25Z" fill="#71C9D6"/>
<path d="M2.66675 27.667H4.33341V30.3337H2.66675V27.667ZM6.00008 27.667H7.66675V30.3337H6.00008V27.667ZM9.33341 27.667H11.0001V30.3337H9.33341V27.667ZM13.5001 27.667H15.1667V30.3337H13.5001V27.667ZM16.8334 27.667H18.5001V30.3337H16.8334V27.667ZM21.0001 27.667H22.6667V30.3337H21.0001V27.667ZM24.3334 27.667H26.0001V30.3337H24.3334V27.667ZM27.6667 27.667H29.3334V30.3337H27.6667V27.667Z" fill="#ABABAE"/>
</svg>
