<svg width="32" height="32" viewBox="0 0 32 32" fill="none" xmlns="http://www.w3.org/2000/svg">
<path d="M20.8002 6.90039C24.5531 6.90046 27.7668 9.70955 27.767 13.373C27.767 15.8695 26.7018 18.0595 25.2357 19.9053C23.7738 21.7453 21.8606 23.305 20.0355 24.5703C19.3365 25.0542 18.6298 25.5012 17.9789 25.832C17.3731 26.1409 16.659 26.4335 16.0004 26.4336C15.3417 26.4336 14.628 26.1409 14.0209 25.832L14.0199 25.8311C13.3086 25.456 12.6227 25.0347 11.9662 24.5703L11.2777 24.082C9.66819 22.9106 8.04437 21.5154 6.76404 19.9053C5.29791 18.0595 4.23376 15.8695 4.23376 13.373C4.23393 9.70966 7.44683 6.90062 11.1996 6.90039C13.1062 6.90039 14.7849 7.77813 16.0004 8.91992C17.2157 7.7783 18.8924 6.90039 20.8002 6.90039ZM20.8002 9.09961C19.2472 9.09961 17.7856 10.0293 16.8724 11.2197C16.7698 11.3534 16.6378 11.4616 16.4867 11.5361C16.3355 11.6107 16.169 11.6494 16.0004 11.6494C15.8316 11.6494 15.6644 11.6108 15.5131 11.5361C15.362 11.4615 15.2299 11.3534 15.1273 11.2197C14.2141 10.0293 12.7539 9.09961 11.1996 9.09961C8.47396 9.09983 6.43315 11.1027 6.43298 13.373C6.43298 15.214 7.21555 16.9356 8.48669 18.5352C9.76072 20.1376 11.4782 21.5565 13.2181 22.7617C13.8762 23.2177 14.4922 23.6029 15.0199 23.8721C15.3018 24.0157 15.523 24.1064 15.6869 24.1611C15.8531 24.2167 15.9547 24.2334 16.0004 24.2334C16.0462 24.2333 16.1478 24.2168 16.3138 24.1611C16.3958 24.1337 16.492 24.0974 16.6029 24.0498L16.9808 23.8711C17.6046 23.5407 18.2067 23.1707 18.7826 22.7627V22.7617C20.5214 21.5564 22.24 20.139 23.514 18.5352C24.7851 16.9357 25.5668 15.2139 25.5668 13.373C25.5666 11.1026 23.526 9.09967 20.8002 9.09961Z" fill="#0B0B0B" stroke="#0B0B0B" stroke-width="0.2"/>
</svg>
