<svg width="32" height="32" viewBox="0 0 32 32" fill="none" xmlns="http://www.w3.org/2000/svg">
<path d="M4 16H28M5.84615 3H26.1538C26.6435 3 27.1131 3.21071 27.4593 3.58579C27.8055 3.96086 28 4.46957 28 5V25C28 26.0609 27.611 27.0783 26.9185 27.8284C26.2261 28.5786 25.287 29 24.3077 29H7.69231C6.71305 29 5.77389 28.5786 5.08145 27.8284C4.38901 27.0783 4 26.0609 4 25V5C4 4.46957 4.1945 3.96086 4.54073 3.58579C4.88695 3.21071 5.35652 3 5.84615 3Z" stroke="#0B0B0B" stroke-width="2.3" stroke-linecap="round" stroke-linejoin="round"/>
<path d="M16 10C16.5098 10 16.9231 9.55228 16.9231 9C16.9231 8.44772 16.5098 8 16 8C15.4902 8 15.0769 8.44772 15.0769 9C15.0769 9.55228 15.4902 10 16 10Z" stroke="#0B0B0B" stroke-width="2.3" stroke-linecap="round" stroke-linejoin="round"/>
<path d="M16 23C16.5098 23 16.9231 22.5523 16.9231 22C16.9231 21.4477 16.5098 21 16 21C15.4902 21 15.0769 21.4477 15.0769 22C15.0769 22.5523 15.4902 23 16 23Z" stroke="#0B0B0B" stroke-width="2.3" stroke-linecap="round" stroke-linejoin="round"/>
</svg>
