<svg width="32" height="32" viewBox="0 0 32 32" fill="none" xmlns="http://www.w3.org/2000/svg">
<path d="M11.999 21.0566L9.93235 18.9892C9.654 18.7142 9.30183 18.5259 8.91859 18.4473C8.53536 18.3686 8.13755 18.403 7.77345 18.5461L5.25474 19.5522C4.8868 19.7016 4.57131 19.9566 4.34801 20.2851C4.12472 20.6136 4.00363 21.0009 4 21.3981V26.013C4.00214 26.2833 4.05893 26.5503 4.16693 26.7979C4.27494 27.0456 4.43193 27.2689 4.62846 27.4543C4.82499 27.6397 5.05699 27.7834 5.31049 27.8767C5.564 27.9701 5.83376 28.0111 6.10354 27.9974C23.753 26.8991 27.3142 11.9469 27.9877 6.22441C28.019 5.9434 27.9904 5.65895 27.9039 5.38977C27.8174 5.1206 27.6749 4.8728 27.4858 4.66268C27.2966 4.45255 27.0652 4.28487 26.8066 4.17066C26.5481 4.05645 26.2683 3.9983 25.9857 4.00004H21.5295C21.1318 4.00122 20.7436 4.12138 20.4148 4.34507C20.086 4.56877 19.8316 4.88576 19.6843 5.25529L18.6786 7.77501C18.5308 8.1378 18.4931 8.53614 18.5702 8.92025C18.6473 9.30437 18.8358 9.65723 19.1123 9.93478L21.1789 12.0022C21.1789 12.0022 19.9887 20.0598 11.999 21.0566Z" fill="black"/>
</svg>
