<svg width="32" height="32" viewBox="0 0 32 32" fill="none" xmlns="http://www.w3.org/2000/svg">
<path d="M27.9231 9.24044H19.0066L23.4655 4.77634C23.6603 4.5812 23.7698 4.31653 23.7698 4.04056C23.7698 3.76458 23.6603 3.49991 23.4655 3.30477C23.2706 3.10963 23.0063 3 22.7308 3C22.4552 3 22.1909 3.10963 21.9961 3.30477L16.5 8.81015L11.0039 3.30477C10.9075 3.20815 10.7929 3.1315 10.6669 3.07921C10.5408 3.02691 10.4057 3 10.2692 3C10.1328 3 9.99767 3.02691 9.87161 3.07921C9.74555 3.1315 9.631 3.20815 9.53452 3.30477C9.33966 3.49991 9.23019 3.76458 9.23019 4.04056C9.23019 4.31653 9.33966 4.5812 9.53452 4.77634L13.9934 9.24044H5.07692C4.52609 9.24044 3.99782 9.45958 3.60832 9.84964C3.21882 10.2397 3 10.7688 3 11.3204V26.92C3 27.4717 3.21882 28.0007 3.60832 28.3908C3.99782 28.7809 4.52609 29 5.07692 29H27.9231C28.4739 29 29.0022 28.7809 29.3917 28.3908C29.7812 28.0007 30 27.4717 30 26.92V11.3204C30 10.7688 29.7812 10.2397 29.3917 9.84964C29.0022 9.45958 28.4739 9.24044 27.9231 9.24044ZM5.07692 12.3204C5.07692 11.7681 5.52464 11.3204 6.07692 11.3204H17.5769C18.1292 11.3204 18.5769 11.7681 18.5769 12.3204V25.92C18.5769 26.4723 18.1292 26.92 17.5769 26.92H6.07692C5.52464 26.92 5.07692 26.4723 5.07692 25.92V12.3204ZM27.9231 25.92C27.9231 26.4723 27.4754 26.92 26.9231 26.92H21.6538C21.1016 26.92 20.6538 26.4723 20.6538 25.92V12.3204C20.6538 11.7681 21.1016 11.3204 21.6538 11.3204H26.9231C27.4754 11.3204 27.9231 11.7681 27.9231 12.3204V25.92ZM25.8462 16.0003C25.8462 16.3088 25.7548 16.6104 25.5836 16.867C25.4125 17.1235 25.1692 17.3234 24.8846 17.4415C24.5999 17.5596 24.2867 17.5905 23.9846 17.5303C23.6824 17.4701 23.4049 17.3215 23.187 17.1034C22.9692 16.8852 22.8208 16.6072 22.7607 16.3046C22.7006 16.002 22.7314 15.6884 22.8493 15.4033C22.9672 15.1183 23.1669 14.8746 23.4231 14.7032C23.6792 14.5318 23.9804 14.4403 24.2885 14.4403C24.7016 14.4403 25.0978 14.6047 25.3899 14.8972C25.682 15.1898 25.8462 15.5866 25.8462 16.0003ZM25.8462 22.2402C25.8462 22.5487 25.7548 22.8503 25.5836 23.1068C25.4125 23.3634 25.1692 23.5633 24.8846 23.6814C24.5999 23.7994 24.2867 23.8303 23.9846 23.7701C23.6824 23.7099 23.4049 23.5614 23.187 23.3432C22.9692 23.125 22.8208 22.8471 22.7607 22.5445C22.7006 22.2419 22.7314 21.9282 22.8493 21.6432C22.9672 21.3581 23.1669 21.1145 23.4231 20.9431C23.6792 20.7717 23.9804 20.6802 24.2885 20.6802C24.7016 20.6802 25.0978 20.8445 25.3899 21.1371C25.682 21.4296 25.8462 21.8264 25.8462 22.2402Z" fill="#0B0B0B"/>
</svg>
