<svg width="32" height="32" viewBox="0 0 32 32" fill="none" xmlns="http://www.w3.org/2000/svg">
<path fill-rule="evenodd" clip-rule="evenodd" d="M10 9.83392V4.52292C9.99935 4.45358 9.98504 4.38505 9.9579 4.32124C9.93076 4.25743 9.89132 4.19959 9.84182 4.15102C9.79233 4.10246 9.73375 4.06412 9.66944 4.03819C9.60513 4.01226 9.53634 3.99926 9.467 3.99992H6.543C6.4729 3.99819 6.40315 4.01039 6.3378 4.03582C6.27245 4.06124 6.21279 4.09938 6.16229 4.14803C6.11178 4.19667 6.07143 4.25485 6.04357 4.31921C6.01571 4.38356 6.0009 4.4528 6 4.52292V13.1689L5 14.0019V30.0019H27V15.0019L16.07 4.77192L10 9.83392Z" fill="#F1DCC1"/>
<path d="M15.92 28.003H8.08C8.04 28.003 8 27.963 8 27.923V17.393C8 16.643 8.61 16.033 9.36 16.033H14.65C15.4 16.033 16.01 16.643 16.01 17.393V27.923C16 27.963 15.96 28.003 15.92 28.003Z" fill="#8C5543"/>
<path d="M14.5 22.002C14.6326 22.002 14.7598 21.9493 14.8536 21.8555C14.9473 21.7617 15 21.6346 15 21.502C15 21.3693 14.9473 21.2422 14.8536 21.1484C14.7598 21.0546 14.6326 21.002 14.5 21.002C14.3674 21.002 14.2402 21.0546 14.1464 21.1484C14.0527 21.2422 14 21.3693 14 21.502C14 21.6346 14.0527 21.7617 14.1464 21.8555C14.2402 21.9493 14.3674 22.002 14.5 22.002Z" fill="#402A32"/>
<path d="M15.96 29.002H8C7.45 29.002 7 28.552 7 28.002C7 27.452 7.45 27.002 8 27.002H15.96C16.51 27.002 16.96 27.452 16.96 28.002C16.96 28.552 16.51 29.002 15.96 29.002Z" fill="#D8D6D7"/>
<path d="M30 30.002H2V29.912C2 28.852 2.85 28.002 3.91 28.002H28.09C29.14 28.002 30 28.852 30 29.912V30.002Z" fill="#298E9C"/>
<path d="M16.88 3.35299L29.64 15.923C30.12 16.393 30.12 17.153 29.64 17.613C29.17 18.083 28.4 18.083 27.92 17.613L16.02 5.89299L4.08 17.653C3.61 18.123 2.84 18.123 2.36 17.653C1.88 17.183 1.88 16.423 2.36 15.953L15.16 3.35299C15.63 2.88299 16.4 2.88299 16.88 3.35299Z" fill="#298E9C"/>
<path d="M23.14 22.002H18.86C18.38 22.002 18 21.622 18 21.142V16.862C18 16.392 18.38 16.002 18.86 16.002H23.14C23.61 16.002 24 16.382 24 16.862V21.142C24 21.622 23.62 22.002 23.14 22.002Z" fill="#71C9D6"/>
</svg>
