<svg width="32" height="32" viewBox="0 0 32 32" fill="none" xmlns="http://www.w3.org/2000/svg">
<path d="M18.4267 29.3334H13.5734C13.2693 29.3335 12.9743 29.2296 12.7374 29.039C12.5005 28.8483 12.3358 28.5825 12.2707 28.2854L11.728 25.7734C11.0041 25.4562 10.3177 25.0596 9.68138 24.5907L7.23205 25.3707C6.94213 25.4632 6.62932 25.4537 6.34554 25.3438C6.06177 25.234 5.82412 25.0303 5.67205 24.7667L3.24005 20.5654C3.08958 20.3016 3.03309 19.9945 3.07984 19.6944C3.12659 19.3943 3.27379 19.119 3.49738 18.9134L5.39738 17.1801C5.31098 16.3949 5.31098 15.6026 5.39738 14.8174L3.49738 13.0881C3.27348 12.8824 3.12607 12.6068 3.07931 12.3065C3.03256 12.0061 3.08923 11.6987 3.24005 11.4347L5.66672 7.23075C5.81878 6.96717 6.05644 6.76354 6.34021 6.65366C6.62398 6.54379 6.9368 6.5343 7.22672 6.62675L9.67605 7.40675C10.0014 7.16675 10.34 6.94275 10.6894 6.74008C11.0267 6.55075 11.3734 6.37875 11.728 6.22541L12.272 3.71608C12.3368 3.41901 12.5012 3.153 12.7378 2.96215C12.9745 2.77129 13.2693 2.66707 13.5734 2.66675H18.4267C18.7308 2.66707 19.0256 2.77129 19.2623 2.96215C19.4989 3.153 19.6633 3.41901 19.7281 3.71608L20.2774 6.22675C21.0004 6.54577 21.6866 6.94232 22.3241 7.40941L24.7747 6.62941C25.0645 6.5373 25.377 6.54698 25.6605 6.65683C25.9439 6.76668 26.1814 6.97012 26.3334 7.23341L28.76 11.4374C29.0694 11.9801 28.9627 12.6667 28.5027 13.0894L26.6027 14.8227C26.6891 15.6079 26.6891 16.4002 26.6027 17.1854L28.5027 18.9187C28.9627 19.3427 29.0694 20.0281 28.76 20.5707L26.3334 24.7747C26.1813 25.0383 25.9437 25.242 25.6599 25.3518C25.3761 25.4617 25.0633 25.4712 24.7734 25.3787L22.3241 24.5987C21.6882 25.0672 21.0022 25.4634 20.2787 25.7801L19.7281 28.2854C19.663 28.5822 19.4986 28.8479 19.2619 29.0385C19.0252 29.2291 18.7306 29.3332 18.4267 29.3334ZM15.9947 10.6667C14.5802 10.6667 13.2237 11.2287 12.2235 12.2288C11.2233 13.229 10.6614 14.5856 10.6614 16.0001C10.6614 17.4146 11.2233 18.7711 12.2235 19.7713C13.2237 20.7715 14.5802 21.3334 15.9947 21.3334C17.4092 21.3334 18.7658 20.7715 19.766 19.7713C20.7661 18.7711 21.3281 17.4146 21.3281 16.0001C21.3281 14.5856 20.7661 13.229 19.766 12.2288C18.7658 11.2287 17.4092 10.6667 15.9947 10.6667Z" fill="#0B0B0B"/>
</svg>
