<svg width="32" height="32" viewBox="0 0 32 32" fill="none" xmlns="http://www.w3.org/2000/svg">
<path fill-rule="evenodd" clip-rule="evenodd" d="M7.03864 3.8166C6.97466 3.8166 6.88252 3.87621 6.88252 3.99993V9.1831H25.4805V3.99993C25.4805 3.87621 25.3883 3.8166 25.3244 3.8166H7.03864ZM4.58252 3.99993V10.3331V27.9999C4.58252 29.349 5.65992 30.4833 7.03864 30.4833H25.3244C26.7031 30.4833 27.7805 29.349 27.7805 27.9999V10.3331V3.99993C27.7805 2.6509 26.7031 1.5166 25.3244 1.5166H7.03864C5.65992 1.5166 4.58252 2.6509 4.58252 3.99993ZM25.4805 27.9999V11.4831H6.88252V27.9999C6.88252 28.1237 6.97466 28.1833 7.03864 28.1833H25.3244C25.3883 28.1833 25.4805 28.1237 25.4805 27.9999ZM20.0998 6.66644C20.0998 7.40282 19.5151 7.99977 18.7937 7.99977C18.0724 7.99977 17.4876 7.40282 17.4876 6.66644C17.4876 5.93006 18.0724 5.33311 18.7937 5.33311C19.5151 5.33311 20.0998 5.93006 20.0998 6.66644ZM22.7121 7.99977C23.4335 7.99977 24.0182 7.40282 24.0182 6.66644C24.0182 5.93006 23.4335 5.33311 22.7121 5.33311C21.9908 5.33311 21.406 5.93006 21.406 6.66644C21.406 7.40282 21.9908 7.99977 22.7121 7.99977ZM12.76 19.9998C12.76 18.0351 14.3141 16.4831 16.1815 16.4831C18.0488 16.4831 19.6029 18.0351 19.6029 19.9998C19.6029 21.9644 18.0488 23.5164 16.1815 23.5164C14.3141 23.5164 12.76 21.9644 12.76 19.9998ZM16.1815 14.1831C12.9994 14.1831 10.46 16.8098 10.46 19.9998C10.46 23.1898 12.9994 25.8164 16.1815 25.8164C19.3635 25.8164 21.9029 23.1898 21.9029 19.9998C21.9029 16.8098 19.3635 14.1831 16.1815 14.1831Z" fill="#0B0B0B"/>
</svg>
