<svg width="32" height="32" viewBox="0 0 32 32" fill="none" xmlns="http://www.w3.org/2000/svg">
<path d="M16.81 4.29999C16.5839 4.10766 16.2968 4.00204 16 4.00204C15.7032 4.00204 15.4161 4.10766 15.19 4.29999L5.44 12.588C5.30195 12.7054 5.1911 12.8515 5.11512 13.0161C5.03914 13.1806 4.99986 13.3597 5 13.541V26.5C5 26.6326 5.05268 26.7598 5.14645 26.8535C5.24021 26.9473 5.36739 27 5.5 27H10.5C10.6326 27 10.7598 26.9473 10.8536 26.8535C10.9473 26.7598 11 26.6326 11 26.5V19.5C11 18.837 11.2634 18.2011 11.7322 17.7322C12.2011 17.2634 12.837 17 13.5 17H18.504C18.8323 17 19.1574 17.0647 19.4607 17.1903C19.764 17.3159 20.0396 17.5001 20.2718 17.7322C20.5039 17.9644 20.6881 18.24 20.8137 18.5433C20.9393 18.8466 21.004 19.1717 21.004 19.5V26.5C21.004 26.6326 21.0567 26.7598 21.1504 26.8535C21.2442 26.9473 21.3714 27 21.504 27H26.5C26.6326 27 26.7598 26.9473 26.8536 26.8535C26.9473 26.7598 27 26.6326 27 26.5V13.54C27 13.3589 26.9606 13.18 26.8847 13.0156C26.8087 12.8512 26.6979 12.7053 26.56 12.588L16.81 4.29999ZM13.895 2.77699C14.4826 2.27746 15.2287 2.00317 16 2.00317C16.7713 2.00317 17.5174 2.27746 18.105 2.77699L27.855 11.064C28.2139 11.3691 28.5021 11.7485 28.6999 12.176C28.8976 12.6036 29 13.069 29 13.54V26.5C29 27.163 28.7366 27.7989 28.2678 28.2678C27.7989 28.7366 27.163 29 26.5 29H21.504C20.841 29 20.2051 28.7366 19.7362 28.2678C19.2674 27.7989 19.004 27.163 19.004 26.5V19.5C19.004 19.3674 18.9513 19.2402 18.8576 19.1464C18.7638 19.0527 18.6366 19 18.504 19H13.5C13.3674 19 13.2402 19.0527 13.1464 19.1464C13.0527 19.2402 13 19.3674 13 19.5V26.5C13 27.163 12.7366 27.7989 12.2678 28.2678C11.7989 28.7366 11.163 29 10.5 29H5.5C4.83696 29 4.20107 28.7366 3.73223 28.2678C3.26339 27.7989 3 27.163 3 26.5V13.54C3.00003 13.069 3.10244 12.6036 3.30014 12.176C3.49785 11.7485 3.78612 11.3691 4.145 11.064L13.895 2.77699Z" fill="#0B0B0B"/>
</svg>
