<svg width="32" height="32" viewBox="0 0 32 32" fill="none" xmlns="http://www.w3.org/2000/svg">
<path d="M17 7C17 5.93913 16.5786 4.92172 15.8284 4.17157C15.0783 3.42143 14.0609 3 13 3C11.9391 3 10.9217 3.42143 10.1716 4.17157C9.42143 4.92172 9 5.93913 9 7V19M17 11V13M3 19H29V23C29 24.5913 28.3679 26.1174 27.2426 27.2426C26.1174 28.3679 24.5913 29 23 29H9C7.4087 29 5.88258 28.3679 4.75736 27.2426C3.63214 26.1174 3 24.5913 3 23V19Z" stroke="#0B0B0B" stroke-width="2.3" stroke-linecap="round" stroke-linejoin="round"/>
</svg>
