<svg width="32" height="32" viewBox="0 0 32 32" fill="none" xmlns="http://www.w3.org/2000/svg">
<path d="M16 2V29M21 14.4615V16.5385M11 14.4615V16.5385M25 2H7C6.46957 2 5.96086 2.21882 5.58579 2.60832C5.21071 2.99782 5 3.52609 5 4.07692V26.9231C5 27.4739 5.21071 28.0022 5.58579 28.3917C5.96086 28.7812 6.46957 29 7 29H25C25.5304 29 26.0391 28.7812 26.4142 28.3917C26.7893 28.0022 27 27.4739 27 26.9231V4.07692C27 3.52609 26.7893 2.99782 26.4142 2.60832C26.0391 2.21882 25.5304 2 25 2Z" stroke="#0B0B0B" stroke-width="2.3" stroke-linecap="round" stroke-linejoin="round"/>
</svg>
