<svg width="32" height="32" viewBox="0 0 32 32" fill="none" xmlns="http://www.w3.org/2000/svg">
<path d="M27.1333 11.8973L26.6453 11.6253C26.2159 11.4041 25.8546 11.0705 25.6 10.66C25.5773 10.624 25.556 10.5853 25.5133 10.5106C25.226 10.0491 25.0865 9.51092 25.1133 8.96796L25.1213 8.4013C25.1373 7.49463 25.1453 7.03863 25.0173 6.63063C24.9042 6.26759 24.7146 5.93298 24.4613 5.6493C24.176 5.3293 23.78 5.09996 22.9867 4.64396L22.328 4.26396C21.5387 3.8093 21.1427 3.5813 20.7227 3.49463C20.3516 3.41781 19.9684 3.42099 19.5987 3.50396C19.1813 3.5973 18.7907 3.83196 18.0107 4.29863L18.0067 4.3013L17.5347 4.58263C17.46 4.62796 17.4213 4.6493 17.384 4.67063C17.0133 4.8773 16.6 4.99063 16.1747 5.00396C16.132 5.00663 16.088 5.00663 16.0013 5.00663L15.828 5.0053C15.4025 4.9919 14.9864 4.87668 14.6147 4.6693C14.5773 4.6493 14.5413 4.62663 14.4667 4.5813L13.9907 4.29596C13.2053 3.82396 12.812 3.5893 12.392 3.49463C12.0209 3.41148 11.6362 3.40875 11.264 3.48663C10.8427 3.57463 10.448 3.80396 9.65732 4.26263L9.65332 4.26396L9.00265 4.6413L8.99598 4.64663C8.21198 5.09996 7.81865 5.3293 7.53598 5.64796C7.28409 5.93116 7.09545 6.26479 6.98265 6.62663C6.85598 7.03596 6.86265 7.49196 6.87865 8.40396L6.88798 8.9693C6.88798 9.05597 6.89198 9.09863 6.89065 9.13997C6.88361 9.62437 6.74488 10.0977 6.48932 10.5093C6.44532 10.584 6.42532 10.6213 6.40265 10.656C6.17784 11.0189 5.86919 11.3225 5.50265 11.5413L5.35332 11.6253L4.87198 11.892C4.06932 12.336 3.66798 12.5586 3.37732 12.876C3.11889 13.1557 2.92339 13.4876 2.80398 13.8493C2.67065 14.2586 2.67065 14.716 2.67198 15.6333L2.67465 16.384C2.67598 17.2946 2.67865 17.7493 2.81332 18.156C2.93223 18.5154 3.12631 18.8454 3.38265 19.124C3.67332 19.4386 4.07065 19.66 4.86665 20.1026L5.34398 20.368C5.42532 20.4133 5.46665 20.4346 5.50532 20.4586C5.92315 20.7091 6.26439 21.0692 6.49198 21.5L6.58132 21.66C6.80653 22.0852 6.9125 22.5634 6.88798 23.044L6.87865 23.5866C6.86265 24.5013 6.85598 24.96 6.98398 25.3693C7.09732 25.732 7.28665 26.0666 7.53998 26.3506C7.82532 26.6706 8.22265 26.8986 9.01465 27.356L9.67332 27.736C10.464 28.1906 10.8587 28.4186 11.2787 28.5053C11.6497 28.5821 12.0329 28.5789 12.4027 28.496C12.8213 28.4026 13.212 28.168 13.9947 27.6986L14.4667 27.416C14.8732 27.1542 15.3434 27.0081 15.8267 26.9933H16.1733C16.5973 27.0066 17.0133 27.1226 17.3867 27.3293L17.5093 27.4026L18.0107 27.704C18.7973 28.176 19.1893 28.4106 19.6093 28.504C19.9803 28.5879 20.3649 28.5916 20.7373 28.5146C21.1573 28.4266 21.5547 28.196 22.3453 27.7373L23.0053 27.3546C23.7893 26.8986 24.1827 26.6706 24.4653 26.352C24.7187 26.068 24.9053 25.7346 25.0187 25.3733C25.1453 24.9666 25.1387 24.5146 25.1227 23.616L25.112 23.0293C25.0855 22.4872 25.225 21.95 25.512 21.4893L25.5987 21.3426C25.8235 20.9797 26.1321 20.6761 26.4987 20.4573L26.6453 20.376L26.648 20.3746L27.1293 20.108C27.932 19.6626 28.3333 19.4413 28.6253 19.124C28.884 18.844 29.0787 18.5106 29.1973 18.1506C29.3307 17.744 29.3307 17.288 29.328 16.3813L29.3253 15.616C29.324 14.7053 29.3227 14.2493 29.188 13.8426C29.0684 13.4836 28.8739 13.1541 28.6173 12.876C28.328 12.5613 27.9307 12.34 27.136 11.8986L27.1333 11.8973Z" stroke="#0B0B0B" stroke-width="2" stroke-linecap="round" stroke-linejoin="round"/>
<path d="M10.6666 16.0001C10.6666 17.4146 11.2285 18.7711 12.2287 19.7713C13.2289 20.7715 14.5855 21.3334 16 21.3334C17.4144 21.3334 18.771 20.7715 19.7712 19.7713C20.7714 18.7711 21.3333 17.4146 21.3333 16.0001C21.3333 14.5856 20.7714 13.229 19.7712 12.2288C18.771 11.2287 17.4144 10.6667 16 10.6667C14.5855 10.6667 13.2289 11.2287 12.2287 12.2288C11.2285 13.229 10.6666 14.5856 10.6666 16.0001Z" stroke="#0B0B0B" stroke-width="2" stroke-linecap="round" stroke-linejoin="round"/>
</svg>
