<svg width="32" height="32" viewBox="0 0 32 32" fill="none" xmlns="http://www.w3.org/2000/svg">
<path d="M30.535 29.9995H2.50012V18.8775C2.50012 18.3885 2.90062 17.9995 3.38022 17.9995H29.6439C30.1345 17.9995 30.524 18.3995 30.524 18.8775V29.9995H30.535Z" fill="#298E9C"/>
<path d="M6.47504 6.26951V8.16051L9.04324 6.05151L13.5799 10.2315L17.0182 6.99951L19.5213 9.35251V6.26951C19.5213 6.11951 19.6414 5.99951 19.7916 5.99951H21.2334C21.3736 5.99951 21.4937 6.11951 21.4937 6.26951V8.23751L24.12 6.05151L29.5167 11.0915V18.5015H25.5287V24.9995H8.50757V18.5025H3.50134V10.6025L4.50259 9.78051V6.26951C4.50259 6.11951 4.62274 5.99951 4.77292 5.99951H6.21472C6.35489 5.99951 6.47504 6.11951 6.47504 6.26951Z" fill="#F1DCC1"/>
<path d="M12.3033 9.75942L6.88758 15.0824C6.53714 15.4324 6.53714 15.9924 6.88758 16.3324C7.23802 16.6724 7.80872 16.6824 8.15916 16.3324L17.0002 7.63242L25.8111 16.3024C25.98 16.4704 26.2086 16.5646 26.4469 16.5646C26.6852 16.5646 26.9138 16.4704 27.0827 16.3024C27.4331 15.9524 27.4431 15.4024 27.0927 15.0624L21.2104 9.27342L24.1 6.43242L29.9773 12.2124C30.2076 12.4424 30.5881 12.4424 30.8284 12.2124C31.0687 11.9824 31.0486 11.6024 30.8183 11.3724L24.5205 5.17242C24.4065 5.06185 24.2539 5 24.095 5C23.9361 5 23.7834 5.06185 23.6695 5.17242C23.6695 5.17242 23.6594 5.17242 23.6594 5.18242L20.3563 8.43242L17.641 5.76242C17.4721 5.59449 17.2435 5.50021 17.0052 5.50021C16.7669 5.50021 16.5383 5.59449 16.3694 5.76242C16.3694 5.76242 16.3594 5.76242 16.3594 5.77242L13.1534 8.92442L9.34163 5.17242C9.22765 5.06185 9.075 5 8.9161 5C8.7572 5 8.60456 5.06185 8.49057 5.17242C8.49057 5.17242 8.48056 5.17242 8.48056 5.18242L2.17271 11.3924C1.94243 11.6224 1.94243 12.0024 2.17271 12.2324C2.403 12.4624 2.78347 12.4624 3.02377 12.2324L8.92111 6.43242L12.3033 9.75942Z" fill="#298E9C"/>
<path d="M21.9533 19.9995H19.0908C18.9391 19.9995 18.7937 19.9394 18.6865 19.8323C18.5793 19.7252 18.519 19.58 18.519 19.4285V16.5695C18.519 16.2495 18.7794 15.9985 19.0908 15.9985H21.9523C22.2727 15.9985 22.524 16.2585 22.524 16.5695V19.4275C22.524 19.7475 22.2737 19.9985 21.9523 19.9985" fill="#71C9D6"/>
<path d="M16.5176 24.3695H10.5101V17.0195C10.5101 16.4595 10.9707 15.9995 11.5314 15.9995H15.4963C16.057 15.9995 16.5176 16.4595 16.5176 17.0195V24.3695Z" fill="#8C5543"/>
<path d="M14.9557 20.8795C15.0725 20.8795 15.1846 20.8332 15.2672 20.7506C15.3498 20.6681 15.3962 20.5562 15.3962 20.4395C15.3962 20.3228 15.3498 20.2109 15.2672 20.1284C15.1846 20.0459 15.0725 19.9995 14.9557 19.9995C14.8388 19.9995 14.7268 20.0459 14.6442 20.1284C14.5616 20.2109 14.5151 20.3228 14.5151 20.4395C14.5151 20.5562 14.5616 20.6681 14.6442 20.7506C14.7268 20.8332 14.8388 20.8795 14.9557 20.8795Z" fill="#402A32"/>
<path d="M9.50891 24.9995C9.50891 24.4435 10.0916 23.9995 10.8025 23.9995H16.2253C16.9361 23.9995 17.5189 24.4515 17.5189 24.9995" fill="#D8D6D7"/>
<path d="M2.58023 19.0865C2.71039 19.4775 2.98173 19.7985 3.34318 19.9895V19.9995H6.03453C6.31488 19.8095 6.50611 19.4875 6.50611 19.1265C6.50611 19.0865 6.50611 19.0565 6.4961 19.0265V18.9965C6.47342 18.7981 6.39419 18.6104 6.26782 18.4556C6.14145 18.3009 5.97325 18.1856 5.78321 18.1235C5.72639 18.1077 5.67369 18.0797 5.62874 18.0416C5.5838 18.0034 5.54768 17.956 5.52289 17.9025C5.39224 17.6326 5.18825 17.4048 4.9342 17.2452C4.68014 17.0855 4.38627 17.0004 4.0861 16.9995C3.65457 16.9995 3.26308 17.1695 2.97172 17.4505C2.76109 17.6602 2.61302 17.9243 2.54406 18.2132C2.4751 18.5021 2.48797 18.8045 2.58123 19.0865M30.4559 19.0865C30.3281 19.4747 30.0546 19.7984 29.693 19.9895V19.9995H27.0006C26.8567 19.9034 26.7386 19.7736 26.6564 19.6214C26.5742 19.4693 26.5305 19.2994 26.529 19.1265C26.529 19.0865 26.529 19.0565 26.539 19.0265V18.9965C26.5891 18.5845 26.8694 18.2435 27.2519 18.1235C27.3621 18.0935 27.4622 18.0135 27.5122 17.9025C27.622 17.6749 27.7843 17.4765 27.9858 17.3238C28.1874 17.1711 28.4224 17.0685 28.6714 17.0243C28.9205 16.9802 29.1765 16.9958 29.4184 17.0699C29.6602 17.144 29.881 17.2745 30.0624 17.4505C30.273 17.6602 30.4211 17.9243 30.4901 18.2132C30.559 18.5021 30.5462 18.8045 30.4529 19.0865M27.0647 25.9995C27.3746 25.8484 27.6511 25.6371 27.8781 25.3777C28.1051 25.1184 28.2779 24.8164 28.3863 24.4895C28.4847 24.2197 28.5342 23.9346 28.5325 23.6475C28.5325 22.9165 28.2221 22.2405 27.7065 21.7585C27.1767 21.2707 26.4826 20.9998 25.7621 20.9995C25.2452 20.9955 24.7373 21.1345 24.2946 21.401C23.852 21.6675 23.4918 22.0512 23.2539 22.5095C23.2075 22.6011 23.1417 22.6817 23.0612 22.7455C22.9807 22.8094 22.8873 22.8551 22.7874 22.8795C22.4636 22.9766 22.1745 23.1641 21.954 23.42C21.7334 23.6758 21.5908 23.9893 21.5428 24.3235C21.5328 24.3425 21.5328 24.3605 21.5428 24.3695C21.5238 24.4165 21.5238 24.4805 21.5238 24.5365C21.5238 25.1475 21.8542 25.6935 22.3498 25.9995H26.53H27.0647ZM4.6488 24.4895C4.75712 24.8165 4.92985 25.1186 5.15683 25.3779C5.38381 25.6372 5.66044 25.8486 5.97045 25.9995H10.6853C11.1809 25.6935 11.5113 25.1475 11.5113 24.5365C11.5113 24.4815 11.5113 24.4165 11.4913 24.3695C11.5013 24.3605 11.5013 24.3425 11.4913 24.3235C11.4042 23.6475 10.9086 23.0835 10.2478 22.8795C10.1479 22.8552 10.0544 22.8095 9.97386 22.7456C9.89331 22.6817 9.82758 22.6012 9.78119 22.5095C9.54337 22.0512 9.18318 21.6675 8.7405 21.401C8.29782 21.1345 7.78993 20.9955 7.27307 20.9995C6.51512 20.9995 5.83428 21.2955 5.32865 21.7595C5.06884 22.0007 4.86145 22.2927 4.71936 22.6173C4.57726 22.9419 4.50349 23.2922 4.50262 23.6465C4.50262 23.9425 4.55168 24.2205 4.6488 24.4895Z" fill="#71C9D6"/>
</svg>
