<svg width="32" height="32" viewBox="0 0 32 32" fill="none" xmlns="http://www.w3.org/2000/svg">
<path fill-rule="evenodd" clip-rule="evenodd" d="M30 16C30 23.7322 23.7322 30 16 30C13.76 30 11.6432 29.4736 9.76721 28.5384C9.27165 28.2823 8.69958 28.2161 8.15861 28.3522L5.04222 29.1866C4.73376 29.2689 4.40907 29.2686 4.10075 29.1858C3.79244 29.103 3.51133 28.9405 3.28566 28.7147C3.05998 28.4888 2.89768 28.2076 2.81503 27.8993C2.73239 27.5909 2.73232 27.2662 2.81482 26.9578L3.64782 23.8414C3.7833 23.3007 3.71659 22.7291 3.46022 22.2342C2.4965 20.2975 1.99659 18.1632 2.00002 16C2.00002 8.2678 8.26781 2 16 2C23.7322 2 30 8.2678 30 16ZM9.70001 14.7512C9.70001 16.6678 11.5466 18.6782 13.2406 20.1188C14.3928 21.0988 14.9696 21.5902 16 21.5902C17.0304 21.5902 17.6072 21.1002 18.7594 20.1188C20.4534 18.6768 22.3 16.6678 22.3 14.7512C22.3 11.0034 18.835 9.6048 16 12.5C13.165 9.6048 9.70001 11.0034 9.70001 14.7512Z" fill="black"/>
</svg>
