<svg width="32" height="32" viewBox="0 0 32 32" fill="none" xmlns="http://www.w3.org/2000/svg">
<g clip-path="url(#clip0_2357_2450)">
<path d="M31.5482 16.7969C31.8503 17.4635 32.0013 18.1562 32.0013 18.875V20C32.0013 20.7917 31.7878 21.5156 31.3607 22.1719C30.9336 22.8281 30.3607 23.3177 29.6419 23.6406C29.319 24.3594 28.8294 24.9323 28.1732 25.3594C27.5169 25.7865 26.793 26 26.0013 26C25.2826 26 24.6159 25.8229 24.0013 25.4688C23.3867 25.1146 22.8971 24.625 22.5326 24H11.4701C11.1055 24.625 10.6159 25.1146 10.0013 25.4688C9.38672 25.8229 8.72005 26 8.0013 26C7.28255 26 6.61589 25.8229 6.0013 25.4688C5.38672 25.1146 4.89714 24.625 4.53255 24H2.0013C1.72005 24 1.45964 23.9479 1.22005 23.8438C0.980469 23.7396 0.772135 23.599 0.595052 23.4219C0.417969 23.2448 0.272135 23.0312 0.157552 22.7812C0.0429687 22.5312 -0.00911458 22.2708 0.00130208 22V18C0.00130208 17.1667 0.157552 16.3854 0.470052 15.6562C0.782552 14.9271 1.20964 14.2917 1.7513 13.75C2.29297 13.2083 2.92839 12.7812 3.65755 12.4688C4.38672 12.1562 5.16797 12 6.0013 12H6.57943L11.7044 6.875C11.9857 6.59375 12.3086 6.38021 12.6732 6.23438C13.0378 6.08854 13.4232 6.01042 13.8294 6H28.0013V8H27.5482L31.5482 16.7969ZM20.0013 8V12H27.1732L25.6263 8.57812C25.543 8.40104 25.418 8.26042 25.2513 8.15625C25.0846 8.05208 24.9023 8 24.7044 8H20.0013ZM13.8294 8C13.5586 8 13.3242 8.09896 13.1263 8.29688L9.42318 12H18.0013V8H13.8294ZM8.0013 24C8.28255 24 8.54297 23.9479 8.78255 23.8438C9.02213 23.7396 9.23047 23.599 9.40755 23.4219C9.58463 23.2448 9.73047 23.0312 9.84505 22.7812C9.95963 22.5312 10.0117 22.2708 10.0013 22C10.0013 21.7188 9.94922 21.4583 9.84505 21.2188C9.74088 20.9792 9.60026 20.7708 9.42318 20.5938C9.24609 20.4167 9.03255 20.2708 8.78255 20.1562C8.53255 20.0417 8.27213 19.9896 8.0013 20C7.72005 20 7.45964 20.0521 7.22005 20.1562C6.98047 20.2604 6.77214 20.401 6.59505 20.5781C6.41797 20.7552 6.27214 20.9688 6.15755 21.2188C6.04297 21.4688 5.99089 21.7292 6.0013 22C6.0013 22.2812 6.05339 22.5417 6.15755 22.7812C6.26172 23.0208 6.40234 23.2292 6.57943 23.4062C6.75651 23.5833 6.97005 23.7292 7.22005 23.8438C7.47005 23.9583 7.73047 24.0104 8.0013 24ZM8.0013 18C8.55338 18 9.06901 18.1042 9.54818 18.3125C10.0273 18.5208 10.4544 18.8073 10.8294 19.1719C11.2044 19.5365 11.4909 19.9583 11.6888 20.4375C11.8867 20.9167 11.9909 21.4375 12.0013 22H18.0013V14H6.0013C5.44922 14 4.93359 14.1042 4.45443 14.3125C3.97526 14.5208 3.54818 14.8073 3.17318 15.1719C2.79818 15.5365 2.51172 15.9583 2.3138 16.4375C2.11589 16.9167 2.01172 17.4375 2.0013 18V22H4.0013C4.0013 21.4479 4.10547 20.9323 4.3138 20.4531C4.52214 19.974 4.80859 19.5469 5.17318 19.1719C5.53776 18.7969 5.95964 18.5104 6.4388 18.3125C6.91797 18.1146 7.4388 18.0104 8.0013 18ZM26.0013 24C26.2826 24 26.543 23.9479 26.7826 23.8438C27.0221 23.7396 27.2305 23.599 27.4076 23.4219C27.5846 23.2448 27.7305 23.0312 27.8451 22.7812C27.9596 22.5312 28.0117 22.2708 28.0013 22C28.0013 21.7188 27.9492 21.4583 27.8451 21.2188C27.7409 20.9792 27.6003 20.7708 27.4232 20.5938C27.2461 20.4167 27.0326 20.2708 26.7826 20.1562C26.5326 20.0417 26.2721 19.9896 26.0013 20C25.7201 20 25.4596 20.0521 25.2201 20.1562C24.9805 20.2604 24.7721 20.401 24.5951 20.5781C24.418 20.7552 24.2721 20.9688 24.1576 21.2188C24.043 21.4688 23.9909 21.7292 24.0013 22C24.0013 22.2812 24.0534 22.5417 24.1576 22.7812C24.2617 23.0208 24.4023 23.2292 24.5794 23.4062C24.7565 23.5833 24.9701 23.7292 25.2201 23.8438C25.4701 23.9583 25.7305 24.0104 26.0013 24ZM30.0013 18.875C30.0013 18.4479 29.9128 18.0312 29.7357 17.625L28.0794 14H20.0013V22H22.0013C22.0013 21.4479 22.1055 20.9323 22.3138 20.4531C22.5221 19.974 22.8086 19.5469 23.1732 19.1719C23.5378 18.7969 23.9596 18.5104 24.4388 18.3125C24.918 18.1146 25.4388 18.0104 26.0013 18C26.4388 18 26.8607 18.0677 27.2669 18.2031C27.6732 18.3385 28.043 18.5312 28.3763 18.7812C28.7096 19.0312 29.0013 19.3281 29.2513 19.6719C29.5013 20.0156 29.694 20.401 29.8294 20.8281C29.944 20.5469 30.0013 20.2708 30.0013 20V18.875Z" fill="#0B0B0B"/>
</g>
<defs>
<clipPath id="clip0_2357_2450">
<rect width="32" height="32" fill="white"/>
</clipPath>
</defs>
</svg>
