<svg width="32" height="32" viewBox="0 0 32 32" fill="none" xmlns="http://www.w3.org/2000/svg">
<path d="M11.1573 6.38673L7.50933 5.1694C7.10845 5.03587 6.68157 4.99953 6.26388 5.06335C5.84619 5.12717 5.44964 5.28934 5.10692 5.53648C4.7642 5.78363 4.48511 6.10868 4.29266 6.48484C4.10021 6.86101 3.9999 7.27752 4 7.70006V23.4107C3.99987 23.9706 4.17597 24.5164 4.50335 24.9706C4.83074 25.4248 5.29278 25.7645 5.824 25.9414L11.1573 27.7187C11.7043 27.9009 12.2957 27.9009 12.8427 27.7187L19.1573 25.6147C19.7047 25.4322 20.2966 25.4322 20.844 25.6147L24.4907 26.8307C24.8916 26.9642 25.3184 27.0006 25.7361 26.9368C26.1538 26.873 26.5504 26.7108 26.8931 26.4636C27.2358 26.2165 27.5149 25.8914 27.7073 25.5153C27.8998 25.1391 28.0001 24.7226 28 24.3001V8.5894C28.0002 8.02965 27.8243 7.48403 27.4972 7.02983C27.1701 6.57563 26.7083 6.23589 26.1773 6.05873L20.844 4.2814C20.2966 4.09891 19.7047 4.09891 19.1573 4.2814L12.8413 6.3854C12.2943 6.56759 11.703 6.56759 11.156 6.3854" stroke="#0B0B0B" stroke-width="2.3" stroke-linecap="round" stroke-linejoin="round"/>
<path d="M12 6.66667V28M20 4V25.3333" stroke="#0B0B0B" stroke-width="2.3" stroke-linejoin="round"/>
</svg>
