<svg width="32" height="32" viewBox="0 0 32 32" fill="none" xmlns="http://www.w3.org/2000/svg">
<path fill-rule="evenodd" clip-rule="evenodd" d="M14.4 5.59999C12.066 5.59999 9.82773 6.52713 8.17741 8.17745C6.52709 9.82777 5.59995 12.0661 5.59995 14.4C5.59995 16.7339 6.52709 18.9722 8.17741 20.6225C9.82773 22.2728 12.066 23.2 14.4 23.2C16.7339 23.2 18.9722 22.2728 20.6225 20.6225C22.2728 18.9722 23.1999 16.7339 23.1999 14.4C23.1999 12.0661 22.2728 9.82777 20.6225 8.17745C18.9722 6.52713 16.7339 5.59999 14.4 5.59999ZM3.19995 14.4C3.2001 12.6091 3.62973 10.8443 4.4528 9.25368C5.27587 7.66309 6.46837 6.29307 7.93028 5.25854C9.39219 4.22401 11.0809 3.55514 12.8547 3.30804C14.6285 3.06095 16.4357 3.24282 18.1247 3.83842C19.8136 4.43402 21.3352 5.42596 22.5616 6.73105C23.7881 8.03614 24.6837 9.61631 25.1733 11.339C25.6629 13.0617 25.7323 14.8767 25.3755 16.6318C25.0188 18.3868 24.2464 20.0307 23.1231 21.4256L28.448 26.752C28.5658 26.8618 28.6604 26.9943 28.726 27.1415C28.7916 27.2887 28.8269 27.4476 28.8297 27.6087C28.8325 27.7699 28.8029 27.9299 28.7425 28.0793C28.6822 28.2288 28.5924 28.3645 28.4784 28.4784C28.3645 28.5924 28.2287 28.6822 28.0793 28.7426C27.9299 28.8029 27.7698 28.8326 27.6087 28.8297C27.4476 28.8269 27.2887 28.7916 27.1415 28.726C26.9943 28.6604 26.8618 28.5659 26.7519 28.448L21.4256 23.1232C19.78 24.4486 17.7931 25.2815 15.6944 25.5257C13.5956 25.7699 11.4705 25.4154 9.56467 24.5032C7.65879 23.591 6.04982 22.1583 4.92359 20.3706C3.79736 18.5828 3.19981 16.5129 3.19995 14.4Z" fill="#0B0B0B"/>
</svg>
