<svg width="32" height="32" viewBox="0 0 32 32" fill="none" xmlns="http://www.w3.org/2000/svg">
<path fill-rule="evenodd" clip-rule="evenodd" d="M6.8501 12.0002C6.8501 10.6287 7.96192 9.51685 9.33343 9.51685H17.3334C18.7049 9.51685 19.8168 10.6287 19.8168 12.0002V18.6668C19.8168 20.0384 18.7049 21.1502 17.3334 21.1502H9.33343C7.96192 21.1502 6.8501 20.0384 6.8501 18.6668V12.0002ZM9.33343 11.8168C9.23218 11.8168 9.1501 11.8989 9.1501 12.0002V18.6668C9.1501 18.7681 9.23218 18.8502 9.33343 18.8502H17.3334C17.4347 18.8502 17.5168 18.7681 17.5168 18.6668V12.0002C17.5168 11.8989 17.4347 11.8168 17.3334 11.8168H9.33343Z" fill="#0B0B0B"/>
<path d="M25.1501 10.6668C25.1501 10.0317 24.6352 9.51685 24.0001 9.51685C23.365 9.51685 22.8501 10.0317 22.8501 10.6668V20.0002C22.8501 20.6353 23.365 21.1502 24.0001 21.1502C24.6352 21.1502 25.1501 20.6353 25.1501 20.0002V10.6668Z" fill="#0B0B0B"/>
<path fill-rule="evenodd" clip-rule="evenodd" d="M1.51672 8.00002C1.51672 5.89213 3.2255 4.18335 5.33339 4.18335H26.6667C28.7746 4.18335 30.4834 5.89213 30.4834 8.00002V22.6667C30.4834 24.7746 28.7746 26.4834 26.6667 26.4834H25.1501V28.0002C25.1501 28.6353 24.6352 29.1502 24.0001 29.1502C23.365 29.1502 22.8501 28.6353 22.8501 28.0002V26.4834H9.1501V28.0002C9.1501 28.6353 8.63523 29.1502 8.0001 29.1502C7.36497 29.1502 6.8501 28.6353 6.8501 28.0002V26.4834H5.33339C3.2255 26.4834 1.51672 24.7746 1.51672 22.6667V8.00002ZM5.33339 6.48335C4.49576 6.48335 3.81672 7.16238 3.81672 8.00002V22.6667C3.81672 23.5043 4.49576 24.1833 5.33339 24.1833H26.6667C27.5044 24.1833 28.1834 23.5043 28.1834 22.6667V8.00002C28.1834 7.16238 27.5044 6.48335 26.6667 6.48335H5.33339Z" fill="#0B0B0B"/>
</svg>
