<svg width="32" height="32" viewBox="0 0 32 32" fill="none" xmlns="http://www.w3.org/2000/svg">
<path d="M23.0588 10.4949C23.0588 12.6686 22.3529 15.5668 18.9647 16.7261C19.9529 14.2626 20.0941 11.7991 19.3882 9.48052C18.4 6.43738 15.1529 4.11879 12.8941 2.81459C12.3294 2.37985 11.3412 2.9595 11.4824 3.82897C11.4824 5.42299 11.0588 7.74158 8.65882 10.2051C5.55294 13.3931 4 16.7261 4 19.9142C4 24.1166 6.82353 29.3334 12.4706 29.3334C6.82353 23.5369 11.0588 18.465 11.0588 18.465C12.1882 27.0148 18.1176 29.3334 20.9412 29.3334C23.3412 29.3334 28 27.5945 28 20.0591C28 15.5668 26.1647 12.0889 24.6118 10.0602C24.1882 9.33561 23.2 9.77034 23.0588 10.4949Z" fill="#0B0B0B"/>
</svg>
